<svg xmlns="http://www.w3.org/2000/svg" width="274.459" height="178.663" viewBox="0 0 274.459 178.663">
  <g id="Group_52" data-name="Group 52" transform="translate(-971.336 -5599.5)">
    <path id="Path_91" data-name="Path 91" d="M145.078,4.52a59.071,59.071,0,0,0-21.14,4.62,25.269,25.269,0,0,0-9.8,6.58,12.283,12.283,0,0,0-2.73,10.22c.77,4.48,2.94,8.19,5.32,11.9,2.59,4.06,5.39,8.05,8.05,12.11a27.117,27.117,0,0,1,4.13,9.03c1.05,4.76-.98,8.61-5.46,10.43a1.365,1.365,0,0,1-1.96-.49,9.129,9.129,0,0,0-2.73-2.17,35.6,35.6,0,0,0-6.79-2.8,32.639,32.639,0,0,0-7.77-1.19,8.092,8.092,0,0,0-6.65,2.59c-1.75,1.96-1.75,4.13.21,5.88a12.206,12.206,0,0,0,3.43,2.1c8.26,2.94,16.38,2.66,24.22-1.4,6.3-3.22,8.54-8.75,6.02-15.4a52.88,52.88,0,0,0-4.48-8.89c-2.66-4.34-5.74-8.4-8.4-12.74a40.679,40.679,0,0,1-3.64-7.7,9.374,9.374,0,0,1,2.87-10.85,21.565,21.565,0,0,1,3.64-2.59A50.291,50.291,0,0,1,146.9,7.81c2.66.07,5.39.14,7.91,1.26a8.577,8.577,0,0,1,4.83,5.04c2.31,5.6-1.96,11.62-6.09,14.98-1.05.84-2.17,1.61-3.22,2.45-.77.63-1.47,1.47-.63,2.38s1.61.07,2.24-.49a33.72,33.72,0,0,0,9.17-10.22c3.92-6.23.91-15.54-6.86-17.29C151.238,5.22,148.158,4.94,145.078,4.52Zm-32.13,67.69c-4.55-.14-7.91-.56-11.06-2.03-.98-.42-2.31-.77-2.17-2.17.14-1.26,1.4-1.54,2.45-1.89a11.066,11.066,0,0,1,7.21.42c3.22,1.05,6.37,2.38,9.52,3.64.21.07.35.28.56.42-.21.21-.35.49-.63.56C116.518,71.58,114.208,72,112.948,72.21Zm46.27-14.7c.14,7.7,7.63,4.13,11.41.98,1.75-1.54,1.26-2.59-1.4-1.33-.35.14-.7.35-1.12.56-1.05.56-5.81,3.5-6.02.35-.21-2.1.28-4.27-.21-6.44a2.912,2.912,0,0,0-3.92-2.31c-4.48,1.4-8.47,5.95-12.39,9.45l-2.38,2.1c1.75-2.94,3.5-6.09,5.25-9.17,5.81-9.38,12.18-18.41,19.67-26.18l.28-.35c.49-.77.77-1.61,0-2.17a2.89,2.89,0,0,0-2.17-.28c-.56.14-1.12.84-1.54,1.4-2.24,2.8-4.48,5.53-6.58,8.4-3.64,4.97-7.07,10.01-10.36,15.12-3.92,5.18-4.9,5.88-5.95,6.65-1.54,1.12-3.15,2.31-3.71,2.8l-.42.35c-1.75,1.54-1.26,2.59,1.4,1.33a20.55,20.55,0,0,0,2.38-1.26l-1.26,2.17a39.834,39.834,0,0,0-2.24,4.97c-.35.77-.56,1.61.28,2.1a2.115,2.115,0,0,0,2.66-.14,4.77,4.77,0,0,0,.84-.84c4.69-4.9,9.03-9.52,15.4-13.58,1.54-.98,2.17-.49,2.24,1.33C159.428,54.85,159.218,56.18,159.218,57.51Zm22.82,6.79a25.719,25.719,0,0,0,14.56-5.81c1.75-1.54,1.26-2.59-1.4-1.33l-1.33.7c-3.78,2.24-10.71,4.9-14.98,3.08-1.4-.63-3.29-2.87-2.45-4.97.14-.7.42-.21.84.28,1.68,2.03,12.39-2.8,12.95-5.32.63-1.61.21-3.71-1.4-4.27a6.222,6.222,0,0,0-2.52-.49c-3.78.14-8.54,3.15-11.27,6.65-1.68,1.33-4.9,3.57-5.74,4.27l-.42.35c-1.75,1.54-1.26,2.59,1.4,1.33.7-.28,1.61-.84,2.66-1.4a5.26,5.26,0,0,0,2.87,5.6A10.607,10.607,0,0,0,182.038,64.3Zm2.8-15.33c2.1-.28,2.66-.14,2.8.14.14.49-.21,1.05-.77,1.54-1.33,1.19-7.28,3.85-8.89,3.15.07-.21.07-.49.21-.63A12.939,12.939,0,0,1,184.838,48.97Zm38.71-21.49a1.463,1.463,0,0,0,.63-2.03,1.579,1.579,0,0,0-2.17-.49,13.881,13.881,0,0,0-3.08,2.24c-8.05,7.56-13.23,17.36-18.06,25.76-1.68,1.33-4.76,3.43-5.6,4.13l-.42.35c-1.75,1.54-1.26,2.59,1.4,1.33a14.32,14.32,0,0,0,2.24-1.19c-4.06,15.4,4.62,10.15,15.4,3.29a28.341,28.341,0,0,0,3.5-2.38c1.75-1.54,1.26-2.59-1.4-1.33a40.453,40.453,0,0,0-3.92,2.17c-3.92,2.45-7.84,5.32-10.01,5.32-2.59,0-1.68-3.43-.7-6.09C203.038,54.5,214.8,33.15,223.548,27.48Zm1.82,19.67-3.92,5.95c-1.75,1.33-4.62,3.29-5.39,3.99l-.42.35c-1.75,1.54-1.26,2.59,1.4,1.33a2.366,2.366,0,0,0,.84-.42l-1.75,2.73a47.831,47.831,0,0,0-3.5,6.79,1.767,1.767,0,0,0,.14,1.68c.63.49,1.33,0,1.82-.63.28-.35.42-.77.7-1.19a42.546,42.546,0,0,1,2.73-3.29c2.24-2.24,3.36-1.96,9.17-1.33,4.76.49,10.57.63,17.01-3.43a15.775,15.775,0,0,0,1.68-1.19c1.75-1.54,1.26-2.59-1.4-1.33a30.714,30.714,0,0,0-2.87,1.54c-1.61.98-7.77,2.94-9.31,1.75,3.43-1.68,11.34-7.49,11.97-12.46.28-2.45-1.12-3.92-3.64-3.85a5.318,5.318,0,0,0-1.82.42c-2.24,1.12-4.62,2.17-6.72,3.5-2.17,1.47-4.13,3.22-6.16,4.83l-1.4.91a166.8,166.8,0,0,1,19.32-25.62,1.887,1.887,0,0,0,.49-.56c.35-.77.77-1.47,0-2.17a1.669,1.669,0,0,0-2.38,0,22.374,22.374,0,0,0-1.75,1.89,158,158,0,0,0-14.84,19.74Zm-2.45,13.02a1.464,1.464,0,0,1-.42-.28c-.07-.07,0-.28.14-.42a4.4,4.4,0,0,1,.77-.84,61.214,61.214,0,0,1,13.23-10.43,13.338,13.338,0,0,1,3.29-1.26c1.05-.28,1.54.28,1.26,1.33a3.7,3.7,0,0,1-.77,1.68,19.131,19.131,0,0,1-3.22,3.5,30.263,30.263,0,0,1-13.23,6.58A4.237,4.237,0,0,1,222.918,60.17Zm48.58-7.84c.14-.42.42-.91.63-1.4a18.653,18.653,0,0,0,.7-2.66c.14-1.61-1.12-2.38-2.87-1.68a13.294,13.294,0,0,0-2.38,1.4c-2.73,1.96-7.21,6.09-11.41,8.12-3.92,1.89-5.88,1.68-3.71-3.57a14.5,14.5,0,0,1,2.52-3.43c.63-.84.21-3.15-1.68-2.45a2.472,2.472,0,0,0-.98.91c-2.59,2.73-4.9,7.14-7.7,9.52l-.42.35c-1.75,1.54-1.26,2.59,1.4,1.33.56-.21,1.68-.84,2.87-1.47.77,2.52,3.57,3.5,7.42,1.68,3.5-1.68,7.98-5.46,11.13-7.77a10.515,10.515,0,0,1,1.61-1.05c.42-.28.91-.07.7.49-.35.91-.91,1.75-4.27,9.59-.63,2.03-2.31,3.29-4.41,4.41-2.66,1.47-5.18,3.08-7.7,4.76A54.422,54.422,0,0,0,237.2,84.6a15.039,15.039,0,0,0-2.38,5.81,3.649,3.649,0,0,0,3.85,4.55,10.778,10.778,0,0,0,5.11-1.26c1.12-.63,2.24-1.4,3.29-2.1a43.377,43.377,0,0,0,10.36-11.48c2.87-4.55,5.25-9.24,7.77-14a5.315,5.315,0,0,1,2.52-2.59l.77-.49a31.782,31.782,0,0,0,4.06-2.17,28.337,28.337,0,0,0,3.5-2.38c1.75-1.54,1.26-2.59-1.4-1.33a40.453,40.453,0,0,0-3.92,2.17c-.84.49-1.61.98-2.45,1.4.63-1.68,3.22-8.12,3.29-8.4Zm-33.74,37.52a29.024,29.024,0,0,1,1.68-3.64,42.766,42.766,0,0,1,8.47-9.73,75.035,75.035,0,0,1,12.46-8.75,1.257,1.257,0,0,1,.77-.21,2.347,2.347,0,0,1,0,.7c-3.78,7.56-8.05,14.91-15.05,20.72a35.007,35.007,0,0,1-4.27,2.87,9.145,9.145,0,0,1-1.47.56C238.388,92.86,237.618,92.3,237.758,89.85Z" transform="matrix(0.998, 0.07, -0.07, 0.998, 881.933, 5588.276)" fill="#d74c4e"/>
    <path id="Path_93" data-name="Path 93" d="M39.775,50.72a22.731,22.731,0,0,0,3.78-.07,2.049,2.049,0,0,0,1.4-1.33c.21-.91-.56-1.4-1.4-1.54h-5.53c-1.75,0-1.89-.14-1.33-1.68.49-1.54,1.19-3.01,1.75-4.48a4.227,4.227,0,0,0,.42-1.54,2.242,2.242,0,0,0-.84-1.54,1.907,1.907,0,0,0-1.61.42,10,10,0,0,0-1.61,2.59c-.63,1.54-1.19,3.15-1.68,4.69a2.379,2.379,0,0,1-2.59,1.96,52.456,52.456,0,0,0-6.65.14c-.49.07-.98.77-1.12,1.26-.07.28.56.98,1.05,1.12a46.6,46.6,0,0,0,5.46.14c2.24.07,2.31.07,1.68,2.24-.21.7-.49,1.33-.63,2.03a3.314,3.314,0,0,0-.21,1.61,2.163,2.163,0,0,0,1.12,1.33c.35.21,1.05-.14,1.4-.49a4.323,4.323,0,0,0,.91-1.68c.42-1.19.77-2.38,1.12-3.64a1.781,1.781,0,0,1,2.03-1.54C37.675,50.79,38.725,50.72,39.775,50.72Z" transform="matrix(0.998, 0.07, -0.07, 0.998, 1151.211, 5608.125)" fill="#b7a476"/>
    <path id="Path_92" data-name="Path 92" d="M110.778,71.51c9.66-.77,18.48-3.15,26.04-8.89a19.89,19.89,0,0,0,4.48-4.9c2.1-3.22,1.05-6.58-2.38-8.4a13.918,13.918,0,0,0-7.14-1.4c-.21,0-.42-.14-.63-.14a3.909,3.909,0,0,1,.35-.56c1.54-.91,3.08-1.75,4.55-2.59a97.685,97.685,0,0,0,19.81-15.26c2.38-2.45,4.55-5.04,5.67-8.4,1.26-4.06-.07-7.07-3.78-8.96a8.666,8.666,0,0,0-2.24-.84,43.657,43.657,0,0,0-7.98-.49c-2.1.07-4.2-.56-6.3.21-2.1.84-4.27,1.26-6.37,1.96-2.66.84-5.32,1.68-7.91,2.66a57.812,57.812,0,0,0-14.56,7.98c-3.22,2.52-6.02,5.39-7.56,9.31A6.76,6.76,0,0,0,107,41.13a15.063,15.063,0,0,0,7.14,3.01,4.273,4.273,0,0,0,1.89-.07,3.848,3.848,0,0,0,1.26-.91,4.355,4.355,0,0,0-1.33-.98,56.658,56.658,0,0,1-5.81-1.96c-3.64-1.82-4.34-4.48-2.31-8.05a21.756,21.756,0,0,1,6.37-7,55.538,55.538,0,0,1,15.82-8.12c2.17-.77,4.41-1.4,6.58-2.03a1.9,1.9,0,0,1,.63,0,.941.941,0,0,1-.14.63c-.21.42-.56.77-.77,1.19-4.76,7.35-9.59,14.63-14.28,21.98-3.99,6.3-7.91,12.74-11.83,19.04a5.3,5.3,0,0,1-2.73,2.17,15.647,15.647,0,0,0-4.34,2.73,4.279,4.279,0,0,0-1.68,4.48c.14.84-.28,1.26-.84,1.82a6.988,6.988,0,0,0-1.47,1.75,1.683,1.683,0,0,0,.14,1.54,1.714,1.714,0,0,0,1.61.35,6.084,6.084,0,0,0,1.96-1.33,2.759,2.759,0,0,1,2.8-.7A51.6,51.6,0,0,0,110.778,71.51Zm38.08-58.52a54.217,54.217,0,0,1,5.74.84c4.2,1.12,5.46,3.99,3.22,7.84a30.727,30.727,0,0,1-4.34,5.6,93.613,93.613,0,0,1-21,15.61c-3.71,2.1-7.56,3.99-11.41,5.95a4.649,4.649,0,0,1-1.05.21,4.605,4.605,0,0,1,.28-1.05c6.44-11.06,13.3-21.84,20.37-32.48a3.611,3.611,0,0,1,3.08-1.96C145.218,13.48,146.688,13.2,148.858,12.99Zm-33.81,47.95c1.05.07,2.24.28,3.43.28.42,0,.84-.49,1.26-.77-.28-.35-.49-.98-.77-1.05a23.292,23.292,0,0,0-3.78-.49c-1.4-.14-1.47-.14-.7-1.47.21-.42.49-.84.7-1.26a5.884,5.884,0,0,1,4.13-3.22c2.73-.7,5.46-1.61,8.19-2.31a15.38,15.38,0,0,1,7.77,0c4.83,1.4,5.53,3.71,2.31,7.35a24.93,24.93,0,0,1-8.75,5.95,47.006,47.006,0,0,1-16.24,4.34,40.181,40.181,0,0,1-4.97-.28c-.63,0-.77-.42-.35-.91,1.33-1.75,2.73-3.5,4.13-5.25C112.388,60.66,113.718,61.08,115.048,60.94Zm46.76,3.36a25.719,25.719,0,0,0,14.56-5.81c1.75-1.54,1.26-2.59-1.4-1.33l-1.33.7c-3.78,2.24-10.71,4.9-14.98,3.08-1.4-.63-3.29-2.87-2.45-4.97.14-.7.42-.21.84.28,1.68,2.03,12.39-2.8,12.95-5.32.63-1.61.21-3.71-1.4-4.27a6.222,6.222,0,0,0-2.52-.49c-3.78.14-8.54,3.15-11.27,6.65-1.68,1.33-4.9,3.57-5.74,4.27l-.42.35c-1.75,1.54-1.26,2.59,1.4,1.33.7-.28,1.61-.84,2.66-1.4a5.26,5.26,0,0,0,2.87,5.6A10.607,10.607,0,0,0,161.808,64.3Zm2.8-15.33c2.1-.28,2.66-.14,2.8.14.14.49-.21,1.05-.77,1.54-1.33,1.19-7.28,3.85-8.89,3.15.07-.21.07-.49.21-.63A12.939,12.939,0,0,1,164.608,48.97Zm26.18-3.43a50.97,50.97,0,0,0,5.74-7.42c1.05-1.54.98-2.8.14-3.5-.77-.56-1.89-.35-3.29.77a25.578,25.578,0,0,0-6.44,8.05,4.752,4.752,0,0,0-.49,1.4,3.168,3.168,0,0,0,.07,2.31c-3.85,3.64-8.47,7.84-9.94,8.75a8.451,8.451,0,0,0-1.54,1.19l-.42.35c-1.75,1.54-1.26,2.59,1.4,1.33,2.03-.77,7.77-6.09,12.04-10.43a4.687,4.687,0,0,0,1.4,0,23.058,23.058,0,0,0,3.78-.98l1.68-.7c-4.41,6.16-7.84,10.78-11.13,15.89-1.47,2.17-5.88,8.54-2.8,11.06,1.05.91,2.24.49,3.36-.07,9.24-7.35,12.67-8.96,18.62-12.67a28.341,28.341,0,0,0,3.5-2.38c1.75-1.54,1.26-2.59-1.4-1.33a11.036,11.036,0,0,0-1.61.77c-6.02,3.78-13.65,8.12-19.25,12.53-.63.49-1.4.07-.98-.77a44.446,44.446,0,0,1,2.8-5.46c3.5-5.11,7.28-10.15,10.85-15.26a20.614,20.614,0,0,0,2.17-3.5c.84-1.96-.42-3.15-2.38-2.59a21.931,21.931,0,0,0-2.24,1.05Zm3.22-6.72a32.709,32.709,0,0,1-4.9,5.88.257.257,0,0,1,.07-.21c1.26-2.03,2.87-4.13,4.34-6.16C194.008,37.84,194.288,38.26,194.008,38.82Zm35.28-14.42c-7.21,8.4-13.16,17.85-18.97,28.84-1.75,1.33-4.41,3.22-5.18,3.85l-.42.35c-1.75,1.54-1.26,2.59,1.4,1.33a13.26,13.26,0,0,0,1.47-.7l-.28.49a68.441,68.441,0,0,0-5.32,10.36c-.21.77-.7,1.68.28,2.1s1.4-.49,1.89-1.12c.35-.49.63-1.12.98-1.61l4.9-8.47c1.26-2.31,1.26-2.24,2.87-.28,3.92,4.97,7.49,7.49,16.8,3.15a37.97,37.97,0,0,0,3.36-1.82,28.341,28.341,0,0,0,3.5-2.38c1.75-1.54,1.26-2.59-1.4-1.33a40.451,40.451,0,0,0-3.92,2.17c-6.02,3.43-11.48,5.32-16.24-1.19-.98-1.26-.91-1.33.56-1.89,1.75-.7,13.93-6.16,12.11-9.52a1.847,1.847,0,0,0-2.24-.84c-3.22.84-5.74,2.38-10.29,5.74a2.6,2.6,0,0,1,.28-1.05c9.03-14.84,12.18-20.51,17.22-24.71a.151.151,0,0,0,.14-.14,1.6,1.6,0,0,0-1.96-2.52A6.465,6.465,0,0,0,229.288,24.4Zm-6.3,24.64c.63-.28-.14,1.61-7.07,4.9C215.288,54.22,217.738,51.7,222.988,49.04Zm40.53-21.56a1.463,1.463,0,0,0,.63-2.03,1.579,1.579,0,0,0-2.17-.49,13.88,13.88,0,0,0-3.08,2.24c-8.05,7.56-13.23,17.36-18.06,25.76-1.68,1.33-4.76,3.43-5.6,4.13l-.42.35c-1.75,1.54-1.26,2.59,1.4,1.33a14.32,14.32,0,0,0,2.24-1.19c-4.06,15.4,4.62,10.15,15.4,3.29a28.338,28.338,0,0,0,3.5-2.38c1.75-1.54,1.26-2.59-1.4-1.33a40.453,40.453,0,0,0-3.92,2.17c-3.92,2.45-7.84,5.32-10.01,5.32-2.59,0-1.68-3.43-.7-6.09C243.008,54.5,254.768,33.15,263.518,27.48Zm5.25,36.82a25.719,25.719,0,0,0,14.56-5.81c1.75-1.54,1.26-2.59-1.4-1.33l-1.33.7c-3.78,2.24-10.71,4.9-14.98,3.08-1.4-.63-3.29-2.87-2.45-4.97.14-.7.42-.21.84.28,1.68,2.03,12.39-2.8,12.95-5.32.63-1.61.21-3.71-1.4-4.27a6.222,6.222,0,0,0-2.52-.49c-3.78.14-8.54,3.15-11.27,6.65-1.68,1.33-4.9,3.57-5.74,4.27l-.42.35c-1.75,1.54-1.26,2.59,1.4,1.33.7-.28,1.61-.84,2.66-1.4a5.26,5.26,0,0,0,2.87,5.6A10.607,10.607,0,0,0,268.768,64.3Zm2.8-15.33c2.1-.28,2.66-.14,2.8.14.14.49-.21,1.05-.77,1.54-1.33,1.19-7.28,3.85-8.89,3.15.07-.21.07-.49.21-.63A12.939,12.939,0,0,1,271.568,48.97Zm37.31,3.36c.14-.42.42-.91.63-1.4a18.649,18.649,0,0,0,.7-2.66c.14-1.61-1.12-2.38-2.87-1.68a13.3,13.3,0,0,0-2.38,1.4c-2.73,1.96-7.21,6.09-11.41,8.12-3.92,1.89-5.88,1.68-3.71-3.57a14.5,14.5,0,0,1,2.52-3.43c.63-.84.21-3.15-1.68-2.45a2.472,2.472,0,0,0-.98.91c-2.59,2.73-4.9,7.14-7.7,9.52l-.42.35c-1.75,1.54-1.26,2.59,1.4,1.33.56-.21,1.68-.84,2.87-1.47.77,2.52,3.57,3.5,7.42,1.68,3.5-1.68,7.98-5.46,11.13-7.77a10.515,10.515,0,0,1,1.61-1.05c.42-.28.91-.07.7.49-.35.91-.91,1.75-4.27,9.59-.63,2.03-2.31,3.29-4.41,4.41-2.66,1.47-5.18,3.08-7.7,4.76a54.422,54.422,0,0,0-15.75,15.19,15.039,15.039,0,0,0-2.38,5.81,3.649,3.649,0,0,0,3.85,4.55,10.778,10.778,0,0,0,5.11-1.26c1.12-.63,2.24-1.4,3.29-2.1a43.377,43.377,0,0,0,10.36-11.48c2.87-4.55,5.25-9.24,7.77-14a5.315,5.315,0,0,1,2.52-2.59l.77-.49a31.786,31.786,0,0,0,4.06-2.17,28.342,28.342,0,0,0,3.5-2.38c1.75-1.54,1.26-2.59-1.4-1.33a40.449,40.449,0,0,0-3.92,2.17c-.84.49-1.61.98-2.45,1.4.63-1.68,3.22-8.12,3.29-8.4Zm-33.74,37.52a29.023,29.023,0,0,1,1.68-3.64,42.765,42.765,0,0,1,8.47-9.73,75.035,75.035,0,0,1,12.46-8.75,1.257,1.257,0,0,1,.77-.21,2.346,2.346,0,0,1,0,.7c-3.78,7.56-8.05,14.91-15.05,20.72a35.006,35.006,0,0,1-4.27,2.87,9.144,9.144,0,0,1-1.47.56C275.768,92.86,275,92.3,275.138,89.85Z" transform="matrix(0.998, 0.07, -0.07, 0.998, 932.835, 5661.499)" fill="#d74c4e"/>
  </g>
</svg>
