<svg xmlns="http://www.w3.org/2000/svg" width="516" height="64" viewBox="0 0 516 64">
  <g id="Group_54" data-name="Group 54" transform="translate(-86 -6095)">
    <rect id="Rectangle_15" data-name="Rectangle 15" width="516" height="64" rx="12" transform="translate(86 6095)" fill="#568e82"/>
    <g id="download" transform="translate(518 6116.931)">
      <g id="Group_51" data-name="Group 51" transform="translate(21.28)">
        <g id="Group_50" data-name="Group 50">
          <path id="Path_91" data-name="Path 91" d="M140,11a.752.752,0,0,0-.686-.442H136.3V.754A.755.755,0,0,0,135.542,0h-3.017a.755.755,0,0,0-.754.754v9.807h-3.017a.754.754,0,0,0-.567,1.251l5.28,6.035a.753.753,0,0,0,1.135,0l5.28-6.035A.752.752,0,0,0,140,11Z" transform="translate(-127.998)" fill="#fff"/>
        </g>
      </g>
      <g id="Group_53" data-name="Group 53" transform="translate(16 16.596)">
        <g id="Group_52" data-name="Group 52">
          <path id="Path_92" data-name="Path 92" d="M35.613,352v4.526h-16.6V352H16v6.035a1.508,1.508,0,0,0,1.509,1.509H37.122a1.507,1.507,0,0,0,1.509-1.509V352Z" transform="translate(-16 -352)" fill="#fff"/>
        </g>
      </g>
    </g>
    <path id="Path_93" data-name="Path 93" d="M7.462,8.826H2.08V27H7.462c6.058,0,9.62-3.406,9.62-9.048C17.082,12.258,13.52,8.826,7.462,8.826ZM3.9,25.492V10.334H7.462c5.148,0,7.774,2.912,7.774,7.618,0,4.68-2.626,7.54-7.774,7.54ZM40.2,17.9c0-5.434-3.874-9.282-9-9.282a8.878,8.878,0,0,0-9,9.282c0,5.46,3.9,9.282,9,9.282C36.322,27.182,40.2,23.36,40.2,17.9Zm-16.12,0c0-4.758,3.094-7.67,7.124-7.67s7.124,2.912,7.124,7.67S35.23,25.6,31.2,25.6,24.076,22.658,24.076,17.9Zm25.688,9.126L51.74,27l4.68-15.5L61,27h2.028L68.172,8.826h-1.95L62.036,24.764,57.512,8.826H55.484L50.83,24.764,46.67,8.826H44.72Zm35.672-18.2V24.088L75.374,8.826h-1.82V27h1.82V11.712L85.436,27h1.82V8.826Zm8.554,0V27h8.346V25.518H95.81V8.826ZM124.7,17.9c0-5.434-3.874-9.282-9-9.282a8.878,8.878,0,0,0-9,9.282c0,5.46,3.9,9.282,9,9.282C120.822,27.182,124.7,23.36,124.7,17.9Zm-16.12,0c0-4.758,3.094-7.67,7.124-7.67s7.124,2.912,7.124,7.67-3.094,7.7-7.124,7.7S108.576,22.658,108.576,17.9ZM142.74,27h1.924l-6.6-17.94h-2.054L129.376,27H131.3l1.586-4.316h8.268Zm-2.132-5.824h-7.176l3.588-9.828Zm14.95-12.35h-5.382V27h5.382c6.058,0,9.62-3.406,9.62-9.048C165.178,12.258,161.616,8.826,155.558,8.826ZM152,25.492V10.334h3.562c5.148,0,7.774,2.912,7.774,7.618,0,4.68-2.626,7.54-7.774,7.54Zm30.68-7.8V10.36h3.666c3.068,0,4.264,1.352,4.264,3.692,0,2.236-1.2,3.64-4.264,3.64Zm9.8-3.64c0-2.99-1.924-5.226-6.136-5.226h-5.486V27h1.82V19.252h3.666C190.606,19.252,192.478,16.99,192.478,14.052ZM207.9,14.1c0,2.21-1.326,3.822-4.29,3.822H199.94V10.36h3.64C206.648,10.36,207.9,11.816,207.9,14.1ZM198.12,8.826V27h1.82V19.408h3.354l4.5,7.592h2.184l-4.68-7.722a5.015,5.015,0,0,0,4.472-5.174c0-2.99-1.976-5.278-6.188-5.278ZM215.982,27h1.82V8.826h-1.82ZM236.418,8.826V24.088L226.356,8.826h-1.82V27h1.82V11.712L236.418,27h1.82V8.826Zm7.254,1.508h5.07V27h1.82V10.334h5.044V8.826H243.672Zm33.618,14.69-5.954-16.2H269.36L276.25,27h2.08l6.89-18.174H283.3ZM300.04,8.8h-9.49V27h9.49V25.492h-7.67V18.6h6.89V17.094h-6.89V10.308h7.67ZM316,14.1c0,2.21-1.326,3.822-4.29,3.822h-3.666V10.36h3.64C314.756,10.36,316,11.816,316,14.1Zm-9.776-5.278V27h1.82V19.408H311.4L315.9,27h2.184l-4.68-7.722a5.015,5.015,0,0,0,4.472-5.174c0-2.99-1.976-5.278-6.188-5.278Zm29.224,13.39c0-6.76-9.984-3.536-9.984-8.788,0-2.106,1.768-3.276,3.9-3.25,2.522.026,3.744,1.586,3.952,2.86H335.3c-.312-2.5-2.392-4.42-5.85-4.42-3.51,0-5.824,2.054-5.824,4.862,0,6.838,9.984,3.458,9.984,8.814,0,1.872-1.482,3.354-4,3.354-2.938,0-4.056-1.82-4.212-3.328h-1.924c.1,2.782,2.5,4.862,6.136,4.862C333.45,27.182,335.452,24.686,335.452,22.216ZM341.562,27h1.82V8.826h-1.82Zm25.714-9.1c0-5.434-3.874-9.282-9-9.282a8.878,8.878,0,0,0-9,9.282c0,5.46,3.9,9.282,9,9.282C363.4,27.182,367.276,23.36,367.276,17.9Zm-16.12,0c0-4.758,3.094-7.67,7.124-7.67s7.124,2.912,7.124,7.67-3.094,7.7-7.124,7.7S351.156,22.658,351.156,17.9Zm33.93-9.074V24.088L375.024,8.826H373.2V27h1.82V11.712L385.086,27h1.82V8.826Z" transform="translate(119 6111)" fill="#fff"/>
  </g>
</svg>
