<?xml version="1.0" encoding="UTF-8"?><svg id="Layer_2" xmlns="http://www.w3.org/2000/svg" viewBox="0 0 299.879 109.562"><defs><style>.cls-1{isolation:isolate;}.cls-2{fill:#d74c4e;stroke-width:0px;}</style></defs><g id="website"><g class="cls-1"><path class="cls-2" d="m78.557,2c-.015,0-.03,0-.045,0-1.184.036-2.421.52-3.559.924-20.579,7.356-40.53,16.24-60.615,24.745-2.967,1.269-5.855,2.637-8.654,4.016-1.159.583-2.263,1.445-3.266,2.229-.301.235-.478.938-.399,1.039.304.293.776.526,1.212.526.029,0,.057,0,.085-.003.457-.034.937-.248,1.416-.461,3.245-1.324,6.323-2.76,9.569-4.084,18.045-7.396,35.877-15.271,54.348-21.707.669-.282,1.484-.272,2.221-.363-.435.582-.801,1.353-1.403,1.822-11.417,11.02-21.771,22.987-31.893,35.256-5.967,7.245-11.521,14.815-17.242,22.273-1.091,1.497-2.035,3.286-2.712,5.107-.992,2.947.31,5.016,2.926,5.016.398,0,.826-.048,1.282-.148,2.152-.552,4.249-1.382,6.2-2.503,4.182-2.297,8.384-4.773,12.341-7.462,14.725-9.888,29.303-20.065,43.949-30.056,1.783-1.231,3.646-2.364,5.495-3.405.075-.059.158-.078.246-.078.148,0,.312.056.479.076-.021.179-.044.358-.154.524-.267.693-.701,1.274-1.046,1.866-3.575,8.448-9.706,17.76-10.784,30.23-.382,4.686,1.411,7.787,4.743,7.787,2.924,0,7.034-2.388,11.9-8.19,2.549-3.043,4.998-6.007,7.638-9.038,8.863-10.154,17.916-20.377,27.115-30.31,5.857-6.353,12.129-12.383,18.321-18.514,1.147-1.22,1.368-2.281.574-3.194-.393-.503-.874-.752-1.399-.752-.626,0-1.316.356-1.995,1.062-.824.806-1.48,1.722-2.293,2.438-18.067,17.912-35.083,36.858-51.014,56.572-3.55,4.304-5.822,6.055-7.148,6.055-5.042,0,3.6-25.315,7.784-31.908,1.802-2.863,3.772-5.612,5.563-8.386.768-1.084,1.1-2.312.148-3.427-.545-.638-1.195-.902-1.868-.902-.503,0-1.02.147-1.515.396-1.839.952-3.668,1.816-5.352,2.97-13.253,8.98-26.517,18.052-39.848,26.933-7.713,5.22-15.572,10.147-23.442,15.166-.881.526-1.84.953-2.787,1.289-.11.039-.232.054-.361.054-.316,0-.673-.089-.99-.128.043-.358.009-.814.231-1.15.912-1.52,1.835-3.13,3.015-4.618C41.783,46.363,58.963,26.076,78.368,7.605c.713-.638,1.437-1.365,2.004-2.292,1.016-1.676.151-3.313-1.815-3.313h0Z"/><path class="cls-2" d="m225.954,57.548c-.239,0-.499.058-.772.185-.57.2-8.46,6.85-4.26,7.36.073.009.147.014.224.014.493,0,1.072-.195,1.756-.584,2.04-1.11,4.35-3.73,4.44-5.17.055-1.055-.532-1.805-1.388-1.805h0Z"/><path class="cls-2" d="m182.677,33.835c-.457,0-.931.16-1.405.458-.89.62-1.72,1.42-2.53,2.14-7.74,6.94-15.09,14.38-22.03,22.86l-.01.09-5.94,6.98c-2.44,1.42-6.41,3.48-7.5,4.25l-.16.1-1.75.66c-3.406,1.496-8.589,3.009-13.204,3.009-2.389,0-4.626-.405-6.386-1.429-1.69-1.02-3.75-4.17-2.35-6.72.098-.295.196-.413.299-.413.202,0,.427.447.731.903.408.639,1.45.909,2.833.909,4.787,0,13.666-3.241,14.527-5.669,1.05-1.96.84-4.7-1.12-5.67-.93-.57-2.07-.89-3.14-1.02-.29-.025-.587-.037-.888-.037-4.736,0-10.743,2.958-14.532,6.757-2.36,1.43-6.82,3.79-8,4.55l-.59.38c-1.833,1.254-2.052,2.36-.576,2.36.513,0,1.23-.133,2.156-.44.94-.25,2.19-.82,3.61-1.37-.81,2.89.13,5.63,2.79,7.59,2.23,1.73,4.86,2.5,7.74,2.68.347.007.693.011,1.036.011,6.532,0,12.397-1.374,17.964-4.851h.01c.37-.04.74-.18,1.13-.4l-2.66,3.21c-2.12,2.46-3.83,5.33-5.53,8.12-.34.5-.49,1.75-.09,2.16.248.248.524.352.809.352.552,0,1.136-.39,1.611-.872.41-.4.66-.91,1.08-1.41,1.34-1.28,2.6-2.67,4-3.77,1.554-1.21,2.681-1.71,4.26-1.71,1.683,0,3.878.568,7.65,1.45,2.828.646,5.964,1.229,9.417,1.229,3.873,0,8.144-.734,12.823-2.939.66-.35,1.27-.62,1.75-.88.06-.02.12-.04.18-.06,1.13-.31,4.19-1.57,6.28-3.13-1.1,3.77-.49,6.2-.73,8.16-.15,1.98-1.5,3.36-3.54,4.46-4.1,2.4-7.97,5.1-11.76,7.9-2.47,1.69-4.55,3.88-5.91,6.8-1.39,3.18.14,5.55,3.44,5.95.308.027.612.04.912.04,2.06,0,3.949-.61,5.808-1.57,6.51-3.55,10.88-8.91,13.2-15.97.69-1.91,1.76-3.23,3.67-3.99,8.21-4.18,10.34-5.32,11.28-5.89l.01-.01c.93-.24,2.15-.71,3.47-1.36-.72,1.46-1.28,3.02-1.64,4.52-1.01,4.17,2.125,5.349,5.486,5.349.967,0,1.952-.097,2.864-.249,3.23-.51,6.19-1.69,9.26-3.12,1.88-.85,3.43-1.61,4.39-2.2.74-.18,1.69-.6,2.72-1.01-1.83,3.04-3.39,6.21-4.18,9.64-.6,1.93-.85,3.98-.64,6,.292,2.899,2.592,3.824,5.128,3.824,1.724,0,3.558-.428,4.942-.954,8.31-3.28,20.97-9.44,27.43-13.08l.01-.01c.04-.01.07-.02.11-.03.93-.25,2.18-.82,3.61-1.37-.81,2.89.13,5.64,2.79,7.6,2.23,1.72,4.86,2.5,7.74,2.67.34.007.679.011,1.016.011,6.728,0,12.75-1.446,18.474-5.141,1.831-1.26,2.052-2.362.58-2.362-.513,0-1.232.134-2.16.442l-1.81.68c-3.41,1.497-8.599,3.012-13.22,3.012-2.386,0-4.62-.404-6.38-1.422-1.68-1.03-3.74-4.18-2.34-6.73.095-.295.19-.413.292-.413.199,0,.424.447.728.903.41.639,1.453.909,2.837.909,4.789,0,13.662-3.241,14.523-5.669,1.06-1.96.85-4.7-1.11-5.67-.93-.56-2.07-.89-3.14-1.02-.29-.025-.587-.037-.889-.037-4.737,0-10.752,2.958-14.541,6.757-2.35,1.44-6.81,3.79-7.99,4.55l-.17.11c-8.74,3.45-15.54,8.04-23.04,10.92-1.854.705-4.717,2.007-6.851,2.007-1.802,0-3.083-.928-2.799-3.927.75-3.89,2.54-7.39,4.58-10.68,6.44-10.36,9.59-12.42,17.53-21.69.846-.919,1.719-1.13,2.78-1.13.255,0,.521.012.8.03l25.85,2.17c1.34.17,2.62.87,4.03,1.13,2.28.65,4.67,1.12,7.07,1.51.14.03.277.045.409.045.782,0,1.404-.514,1.661-1.335.22-1.06-.24-1.75-1.28-2.15-.42-.33-.93-.57-1.47-.64-9.83-1.84-19.62-2.68-34.2-3.56-.98-.12-1.48-.46-.63-1.44l11.18-11.32c.73-.82,1.64-1.52,2.2-2.45.32-.32.36-1.41.02-1.63-.301-.165-.931-.324-1.44-.324-.201,0-.384.025-.52.084-1.27.75-2.47,1.6-3.41,2.66-4.32,4.19-8.66,8.46-12.81,12.76-.941,1.05-1.989,1.55-3.592,1.55-.016,0-.032,0-.048,0-.552-.015-1.107-.022-1.661-.022-3.161,0-6.356.217-9.529.362-.04-.001-.08-.002-.119-.002-.949,0-1.775.339-2.611.762-.27.05-.62.65-.56.92.05.28.65.63.99.76.163.052.341.069.525.069.311,0,.636-.051.925-.069l8.07-.01c.116-.007.232-.01.349-.01.903,0,1.835.183,2.711.21-.55.83-1.11,1.67-1.64,2.33-6.34,7.29-7.66,11.4-15.93,16-1.26.66-2.43,1.33-2.92,1.64l-.1.07h-.02c-1.22.32-2.85,1.1-4.57,1.89-2.697.96-7.377,2.657-10.275,2.657-2.808,0-3.942-1.594.025-6.997,2.94-4.08,2.08-2.92,5.19-6.89.76-1,2.25-2.08.96-3.33-.324-.263-.634-.37-.931-.37-.914,0-1.707,1.019-2.409,1.69-4.71,4.4-2.68,3.38-8.41,6.49-1.46.82-2.81,1.47-3.31,1.86l-.14.09c-1.02.23-2.26.81-3.58,1.36-4.514,1.997-6.661,2.875-7.662,2.875-.848,0-.873-.631-.818-1.745-.03-4.9.69-10.8,3.7-15.32.302-.419.994-.988,1.619-.988.494,0,.946.355,1.131,1.418-.061,2.458.147,5.016,2.356,5.016.308,0,.654-.05,1.044-.156,1.02-.24,1.82-.05,1.69-1.25-.44-3.04.42-7.11-2.45-8.82-1.204-.709-2.312-1.027-3.33-1.027-2.77,0-4.866,2.351-6.38,5.547-2.71,5.74-4.77,7.03-9.78,10.22l-.03.02c-.05.01-.11.03-.16.05-1.04.33-2.47.88-3.91,1.52-1.48.663-5.629,1.573-8.742,1.573-1.536,0-2.82-.221-3.408-.803,4.64-1.61,15.64-7.78,17.23-14.02.74-3.09-.82-5.18-4.05-5.49-.153-.002-.306-.004-.459-.004-.658,0-1.313.035-1.921.254-3.04,1.08-6.24,2.05-9.13,3.42-3,1.53-5.77,3.46-8.62,5.19l-1.92.95c10.77-13.19,19.87-22.32,28.66-29.67.29-.14.5-.39.72-.64.56-.92,1.21-1.75.34-2.77-.494-.567-1.051-.828-1.635-.828h0Zm-59.39,30.165c-.674,0-1.223-.09-1.574-.297.13-.26.17-.61.37-.77,2.65-2.4,5.64-3.84,9.15-4.32.138-.002.271-.002.399-.002,2.389,0,3.018.262,3.15.622.1.65-.44,1.31-1.23,1.84-1.541,1.074-7.201,2.927-10.266,2.927h0Zm28.85,11.651c-.189,0-.39-.01-.605-.038-.17-.11-.33-.22-.49-.42-.08-.1.04-.36.25-.51.31-.33.72-.73,1.11-.96,5.81-4.45,11.75-8.53,18.52-11.23,1.33-.56,2.92-.91,4.39-1.09.143-.021.276-.031.401-.031,1.087,0,1.466.763.999,1.921-.27.69-.64,1.55-1.24,2.02-1.45,1.46-2.9,2.91-4.66,3.97-5.5,3.4-11.33,5.86-17.91,6.32-.223.024-.479.048-.765.048h0Zm122.746,6.96c-.677,0-1.228-.09-1.58-.298.12-.25.17-.61.37-.77,2.65-2.39,5.64-3.84,9.14-4.31.143-.002.282-.002.414-.002,2.387,0,3.013.252,3.136.612.1.65-.43,1.31-1.22,1.85-1.54,1.073-7.193,2.918-10.26,2.918h0Zm-104.54,21.015c-1.216,0-1.893-.725-.83-2.323,1.78-2.68,4.33-4.99,7.75-7.02,1.76-1.06,3.46-2.3,5.4-3.33.24-.188.42-.268.55-.268.519,0,.247,1.26-.12,1.868-2.12,4-7.24,10.26-12.14,11.02-.214.035-.419.053-.61.053h0Z"/></g></g></svg>